<?xml version="1.0" encoding="utf-8"?>
<svg viewBox="11.4384 12.1348 90 90" width="90" height="90" xmlns="http://www.w3.org/2000/svg">
  <g transform="matrix(1, 0, 0, 1, 6.438387870788574, -945.2274169921875)">
    <path style="text-indent:0;text-transform:none;direction:ltr;block-progression:tb;baseline-shift:baseline;color:#000000;enable-background:accumulate;" d="m 7.9999999,957.36217 c -1.6569,0 -3,1.3431 -3,3 l 0,84.00003 c 0,1.6568 1.3432,3 3,3 l 84.0000001,0 c 1.6569,0 3,-1.3432 3,-3 0,-1.6569 -1.3431,-3 -3,-3 l -81,0 0,-81.00003 c 0,-1.6569 -1.3432001,-3 -3.0000001,-3 z M 68,980.36217 c -1.8106,-0.003 -3.223,1.68217 -3.1562,3.15625 0.082,1.57097 1.5852,2.92584 3.1562,2.84375 l 8.4688,0 -26.5938,25.00003 -9.5625,-7.9688 c -0.6047,-0.7192 -1.5625,-1.1262 -2.5,-1.0625 -0.6687,0.048 -1.3184,0.3282 -1.8125,0.7813 l -20,18 c -1.2284,1.0302 -1.3817,3.1179 -0.3125,4.3125 1.0693,1.1946 3.153,1.2635 4.3125,0.1562 l 18.0938,-16.2812 9.625,8.0312 c 1.0587,1.227 3.167,1.3332 4.3437,0.2188 L 81,990.36217 l 0,9 c -0.022,1.58493 1.4149,3.03123 3,3.03123 1.5851,0 3.0224,-1.4463 3,-3.03123 l 0,-16 c -2e-4,-1.57075 -1.4292,-2.99984 -3,-3 l -16,0 z" fill="#000000" fill-opacity="1" stroke="none" marker="none" visibility="visible" display="inline" overflow="visible"/>
  </g>
</svg>