<?xml version="1.0"?>
<svg viewBox="0 0 616 562" xmlns="http://www.w3.org/2000/svg" xmlns:svg="http://www.w3.org/2000/svg">
 <!--! Font Awesome Free 6.1.2 by @fontawesome - https://fontawesome.com License - https://fontawesome.com/license/free (Icons: CC BY 4.0, Fonts: SIL OFL 1.1, Code: MIT License) Copyright 2022 Fonticons, Inc. -->
 <g class="layer">
  <title>Layer 1</title>
  <path d="m244.6,61l122.8,0c20.7,0 39,13.22 45.5,32.82l10.4,31.18l74.7,0c35.3,0 64,28.7 64,64l0,256c0,35.3 -28.7,64 -64,64l-384,0c-35.35,0 -64,-28.7 -64,-64l0,-256c0,-35.3 28.65,-64 64,-64l74.7,0l10.4,-31.18c6.5,-19.6 24.8,-32.82 45.5,-32.82l0,0zm61.4,352c53,0 96,-43 96,-96c0,-53.9 -43,-96 -96,-96c-53.9,0 -96,42.1 -96,96c0,53 42.1,96 96,96z" id="svg_1"/>
 </g>
</svg>