<?xml version="1.0"?>
<svg viewBox="0 0 616 562" xmlns="http://www.w3.org/2000/svg" xmlns:svg="http://www.w3.org/2000/svg">
 <!--! Font Awesome Free 6.1.2 by @fontawesome - https://fontawesome.com License - https://fontawesome.com/license/free (Icons: CC BY 4.0, Fonts: SIL OFL 1.1, Code: MIT License) Copyright 2022 Fonticons, Inc. -->
 <g class="layer">
  <title>Layer 1</title>
  <path d="m116,427c0,8.8 7.16,16 16,16l400,0c17.7,0 32,14.3 32,32c0,17.7 -14.3,32 -32,32l-400,0c-44.18,0 -80,-35.8 -80,-80l0,-336c0,-17.67 14.33,-32 32,-32c17.67,0 32,14.33 32,32l0,336zm278.6,-121.4c-12.5,12.5 -32.7,12.5 -45.2,0l-57.4,-57.3l-89.4,89.3c-12.5,12.5 -32.7,12.5 -45.2,0c-12.52,-12.5 -12.52,-32.7 0,-45.2l112,-112c12.5,-12.5 32.7,-12.5 45.2,0l57.4,57.3l105.4,-105.3c12.5,-12.52 32.7,-12.52 45.2,0c12.5,12.5 12.5,32.7 0,45.2l-128,128z" id="svg_1"/>
 </g>
</svg>