<?xml version="1.0"?>
<svg viewBox="0 0 616 562" xmlns="http://www.w3.org/2000/svg" xmlns:svg="http://www.w3.org/2000/svg">
 <title>recipe book</title>
 <g class="layer">
  <title>Layer 1</title>
  <g data-name="recipe book" id="svg_1">
   <path d="m505.43,446.56a18.57,19.6 0 0 0 18.57,-19.6l0,-372.36a18.57,19.6 0 0 0 -18.57,-19.6l-389.87,0a18.57,19.6 0 0 0 -18.57,19.6l0,411.56a58.48,61.73 0 0 0 60.89,58.79l347.54,0a18.57,19.6 0 0 0 0,-39.2l-18.57,0l0,-39.2l18.57,0zm-185.65,-333.16a18.57,19.6 0 0 1 37.13,0l0,84.27c0,5.68 7.8,11.95 18.57,13.13l0,-97.4a18.57,19.6 0 0 1 37.13,0l0,97.99c10.77,-1.18 18.57,-7.45 18.57,-13.13l0,-84.86a18.57,19.6 0 0 1 37.13,0l0,84.27a54.4,57.42 0 0 1 -55.7,52.91l0,117.59a18.57,19.6 0 0 1 -37.13,0l0,-117.59a54.4,57.42 0 0 1 -55.7,-52.52l0,-84.66zm-92.83,-19.6c43.63,0 74.26,67.02 74.26,103.48a67.95,71.73 0 0 1 -55.7,67.42l0,103.48a18.57,19.6 0 0 1 -37.13,0l0,-103.48a67.95,71.73 0 0 1 -55.7,-67.42c0,-36.45 30.63,-103.48 74.26,-103.48zm222.78,391.96l-291.85,0a22.09,23.32 0 0 1 -23.76,-19.6a22.09,23.32 0 0 1 23.76,-19.6l291.85,0l0,39.2z" id="svg_2"/>
  </g>
 </g>
</svg>