<?xml version="1.0"?>
<svg viewBox="0 0 616 562" xmlns="http://www.w3.org/2000/svg" xmlns:svg="http://www.w3.org/2000/svg">
 <!--! Font Awesome Free 6.1.2 by @fontawesome - https://fontawesome.com License - https://fontawesome.com/license/free (Icons: CC BY 4.0, Fonts: SIL OFL 1.1, Code: MIT License) Copyright 2022 Fonticons, Inc. -->
 <g class="layer">
  <title>Layer 1</title>
  <path d="m532,362l0,-288c0,-26.51 -21.5,-48 -48,-48l-304,0c-53.02,0 -96,42.98 -96,96l0,320c0,53.02 42.98,96 96,96l320,0c17.67,0 32,-14.33 32,-31.1c0,-11.72 -6.61,-21.52 -16,-27.1l0,-81.36c9.8,-9.64 16,-22.24 16,-36.44zm-304.9,-208l192,0c9.7,0 16.9,7.2 16.9,16c0,8.8 -7.2,16 -16,16l-192.9,0c-7.9,0 -15.1,-7.2 -15.1,-16c0,-8.8 7.2,-16 15.1,-16zm0,64l192,0c9.7,0 16.9,7.2 16.9,16c0,8.8 -7.2,16 -16,16l-192.9,0c-7.9,0 -15.1,-7.2 -15.1,-16c0,-8.8 7.2,-16 15.1,-16zm240.9,256l-288,0c-17.67,0 -32,-14.33 -32,-32c0,-17.67 14.33,-32 32,-32l288,0l0,64z" id="svg_1"/>
 </g>
</svg>