<?xml version="1.0"?>
<svg viewBox="0 0 616 562" xmlns="http://www.w3.org/2000/svg" xmlns:svg="http://www.w3.org/2000/svg">
 <!--! Font Awesome Free 6.1.2 by @fontawesome - https://fontawesome.com License - https://fontawesome.com/license/free (Icons: CC BY 4.0, Fonts: SIL OFL 1.1, Code: MIT License) Copyright 2022 Fonticons, Inc. -->
 <g class="layer">
  <title>Layer 1</title>
  <path d="m54,438c0,-17.7 14.33,-32 32,-32l54.66,0c12.34,-28.3 40.54,-48 73.34,-48c32.8,0 60.1,19.7 73.3,48l246.7,0c17.7,0 32,14.3 32,32c0,17.7 -14.3,32 -32,32l-246.7,0c-13.2,28.3 -40.5,48 -73.3,48c-32.8,0 -61,-19.7 -73.34,-48l-54.66,0c-17.67,0 -32,-14.3 -32,-32l0,0zm192,0c0,-17.7 -14.3,-32 -32,-32c-17.7,0 -32,14.3 -32,32c0,17.7 14.3,32 32,32c17.7,0 32,-14.3 32,-32zm160,-240c32.8,0 60.1,19.7 73.3,48l54.7,0c17.7,0 32,14.3 32,32c0,17.7 -14.3,32 -32,32l-54.7,0c-13.2,28.3 -40.5,48 -73.3,48c-32.8,0 -61,-19.7 -73.3,-48l-246.7,0c-17.67,0 -32,-14.3 -32,-32c0,-17.7 14.33,-32 32,-32l246.7,0c12.3,-28.3 40.5,-48 73.3,-48zm32,80c0,-17.7 -14.3,-32 -32,-32c-17.7,0 -32,14.3 -32,32c0,17.7 14.3,32 32,32c17.7,0 32,-14.3 32,-32zm96,-192c17.7,0 32,14.33 32,32c0,17.7 -14.3,32 -32,32l-214.7,0c-13.2,28.3 -40.5,48 -73.3,48c-32.8,0 -61,-19.7 -73.3,-48l-86.7,0c-17.67,0 -32,-14.3 -32,-32c0,-17.67 14.33,-32 32,-32l86.7,0c12.3,-28.25 40.5,-48 73.3,-48c32.8,0 60.1,19.75 73.3,48l214.7,0zm-320,32c0,17.7 14.3,32 32,32c17.7,0 32,-14.3 32,-32c0,-17.67 -14.3,-32 -32,-32c-17.7,0 -32,14.33 -32,32z" id="svg_1"/>
 </g>
</svg>